<svg id="Capa_1" enable-background="new 0 0 512 512" height="512" viewBox="0 0 512 512" width="512" xmlns="http://www.w3.org/2000/svg" xmlns:xlink="http://www.w3.org/1999/xlink"><linearGradient id="SVGID_1_" gradientUnits="userSpaceOnUse" x1="244.001" x2="244.001" y1="452" y2="48.014"><stop offset="0" stop-color="#ffc2cc"/><stop offset="1" stop-color="#fff2f4"/></linearGradient><linearGradient id="SVGID_2_" gradientUnits="userSpaceOnUse" x1="256" x2="256" y1="512" y2="0"><stop offset="0" stop-color="#fd3a84"/><stop offset="1" stop-color="#ffa68d"/></linearGradient><g><g><g><path d="m210.5 75 72.012 54.994c6.629 4.972 16.024 3.632 21.006-3.003 4.951-6.621 3.604-16.025-3.018-20.991l-72.012-54.994c-6.563-4.922-15.996-3.647-21.006 3.003-4.951 6.621-3.603 16.025 3.018 20.991zm-102.012 54.994 72.012-54.994c6.621-4.966 7.969-14.37 3.018-20.991-5.01-6.65-14.414-7.939-21.006-3.003l-72.012 54.994c-6.621 4.966-7.969 14.37-3.018 20.991 4.976 6.627 14.368 7.982 21.006 3.003zm-17.988 96.006v-60c0-8.291-6.709-15-15-15s-15 6.709-15 15v60c0 8.291 6.709 15 15 15s15-6.709 15-15zm105 135c-8.291 0-15 6.709-15 15v61c0 8.291 6.709 15 15 15s15-6.709 15-15v-61c0-8.291-6.709-15-15-15zm135-135v-60c0-8.291-6.709-15-15-15s-15 6.709-15 15v60c0 8.291 6.709 15 15 15s15-6.709 15-15zm90 90-72.012-53.994c-6.592-4.951-15.996-3.633-21.006 3.003-4.951 6.621-3.604 16.025 3.018 20.991l72.012 53.994c6.629 4.972 16.024 3.632 21.006-3.003 4.951-6.621 3.603-16.025-3.018-20.991zm-236.982 20.991c4.951-6.621 3.604-16.025-3.018-20.991l-72.012-53.994c-6.592-4.951-15.996-3.633-21.006 3.003-4.951 6.621-3.603 16.025 3.018 20.991l72.012 53.994c6.629 4.972 16.023 3.632 21.006-3.003zm98.994-74.985-72.012 53.994c-6.621 4.966-7.969 14.37-3.018 20.991 4.976 6.626 14.367 7.982 21.006 3.003l72.012-53.994c6.621-4.966 7.969-14.37 3.018-20.991-4.981-6.651-14.385-7.969-21.006-3.003zm65.976-132.012 73.012-54.994c6.621-4.966 7.969-14.37 3.018-20.991-5.01-6.65-14.414-7.939-21.006-3.003l-73.012 54.994c-6.621 4.966-7.969 14.37-3.018 20.991 4.976 6.627 14.368 7.982 21.006 3.003z" fill="url(#SVGID_1_)"/></g></g><g><g><path d="m75.5 211c-24.814 0-45 20.186-45 45s20.186 45 45 45 45-20.186 45-45-20.186-45-45-45zm0-120c-24.814 0-45 20.186-45 45s20.186 45 45 45 45-20.186 45-45-20.186-45-45-45zm120-91c-24.814 0-45 20.186-45 45s20.186 45 45 45 45-20.186 45-45-20.186-45-45-45zm120 91c-24.814 0-45 20.186-45 45s20.186 45 45 45 45-20.186 45-45-20.186-45-45-45zm0 120c-24.814 0-45 20.186-45 45s20.186 45 45 45 45-20.186 45-45-20.186-45-45-45zm120 90c-24.814 0-45 20.186-45 45s20.186 45 45 45 45-20.186 45-45-20.186-45-45-45zm1-211c24.814 0 45-20.186 45-45s-20.186-45-45-45-45 20.186-45 45 20.186 45 45 45zm-241 211c-24.814 0-45 20.186-45 45s20.186 45 45 45 45-20.186 45-45-20.186-45-45-45zm0 121c-24.814 0-45 20.186-45 45s20.186 45 45 45 45-20.186 45-45-20.186-45-45-45z" fill="url(#SVGID_2_)"/></g></g></g></svg>