<svg id="Capa_1" enable-background="new 0 0 512 512" height="512" viewBox="0 0 512 512" width="512" xmlns="http://www.w3.org/2000/svg" xmlns:xlink="http://www.w3.org/1999/xlink"><linearGradient id="SVGID_1_" gradientUnits="userSpaceOnUse" x1="246.272" x2="246.272" y1="376" y2="135.989"><stop offset="0" stop-color="#ffc2cc"/><stop offset="1" stop-color="#fff2f4"/></linearGradient><linearGradient id="SVGID_2_" gradientUnits="userSpaceOnUse" x1="256" x2="256" y1="436" y2="76"><stop offset="0" stop-color="#fd3a84"/><stop offset="1" stop-color="#ffa68d"/></linearGradient><g><g><g><path d="m130.023 136.952c-7.676-2.915-16.377 1.011-19.307 8.774l-68.202 181.905c-2.93 7.764.996 16.406 8.76 19.321 7.743 2.887 16.394-1.001 19.307-8.774l68.203-181.904c2.929-7.764-.997-16.407-8.761-19.322zm125.977-.952c-8.291 0-15 6.709-15 15v210c0 8.291 6.709 15 15 15s15-6.709 15-15v-210c0-8.291-6.709-15-15-15zm90 0c-8.291 0-15 6.709-15 15v210c0 8.291 6.709 15 15 15s15-6.709 15-15v-210c0-8.291-6.709-15-15-15zm90 0c-8.291 0-15 6.709-15 15v210c0 8.291 6.709 15 15 15s15-6.709 15-15v-210c0-8.291-6.709-15-15-15z" fill="url(#SVGID_1_)"/></g></g><g><g><path d="m497 76h-482c-8.291 0-15 6.709-15 15v60c0 8.291 6.709 15 15 15h482c8.291 0 15-6.709 15-15v-60c0-8.291-6.709-15-15-15zm-451 240c-24.814 0-45 20.186-45 45s20.186 45 45 45 45-20.186 45-45-20.186-45-45-45zm210 30c-24.814 0-45 20.186-45 45s20.186 45 45 45 45-20.186 45-45-20.186-45-45-45zm90 0c-24.814 0-45 20.186-45 45s20.186 45 45 45 45-20.186 45-45-20.186-45-45-45zm90 0c-24.814 0-45 20.186-45 45s20.186 45 45 45 45-20.186 45-45-20.186-45-45-45z" fill="url(#SVGID_2_)"/></g></g></g></svg>